General
Complete name: Teresa.el.cuerpo.de.Cristo.2007.DVDRip.x264.AC3.Spa.MultiSub-E76.mkv
Format                           : Matroska
File size                        : 1.89 GiB
Duration                         : 1h 32mn
Overall bit rate                 : 2 932 Kbps

Video
ID                               : 1
Format                           : AVC
Format profile                   : High@L4.1
Bit rate                         : 2 490 Kbps
Width                            : 706 pixels
Height                           : 552 pixels
Display aspect ratio             : 16:9
Original display aspect ratio    : 1.850
Frame rate                       : 25.000 fps
Scan type                        : Progressive
Bits/(Pixel*Frame)               : 0.256
Stream size                      : 1.57 GiB (83%)

Audio
ID                               : 2
Format                           : AC-3
Duration                         : 1h 32mn
Bit rate mode                    : Constant
Bit rate                         : 448 Kbps
Channel(s)                       : 6 channels
Channel positions                : Front: L C R, Side: L R, LFE
Sampling rate                    : 48.0 KHz
Bit depth                        : 16 bits
Compression mode                 : Lossy
Stream size                      : 296 MiB (15%)
Title                            : Original
Language                         : Spanish

Subtitles: Russian (MMManja), English, Romanian, Slovak, Brazilian (port)